<?xml version="1.0" encoding="UTF-8" standalone="no"?>
<!DOCTYPE svg PUBLIC "-//W3C//DTD SVG 1.1//EN" "http://www.w3.org/Graphics/SVG/1.1/DTD/svg11.dtd">
<svg width="100%" height="100%" viewBox="0 0 1146 577" version="1.1" xmlns="http://www.w3.org/2000/svg" xmlns:xlink="http://www.w3.org/1999/xlink" xml:space="preserve" xmlns:serif="http://www.serif.com/" style="fill-rule:evenodd;clip-rule:evenodd;stroke-linejoin:round;stroke-miterlimit:1.5;">
    <g transform="matrix(6.12323e-17,-1,1,6.12323e-17,-567.427,364.164)">
        <g transform="matrix(12.5,0,0,12.5,265.683,672.065)">
        </g>
        <text x="169.101px" y="672.065px" style="font-family:'ArialMT', 'Arial', sans-serif;font-size:12.5px;fill:rgb(166,166,166);">initially cooperate</text>
    </g>
    <g transform="matrix(6.12323e-17,-1,1,6.12323e-17,334.98,1266.57)">
        <g transform="matrix(12.5,0,0,12.5,1168.09,672.065)">
        </g>
        <text x="1061.07px" y="672.065px" style="font-family:'ArialMT', 'Arial', sans-serif;font-size:12.5px;fill:rgb(166,166,166);">100% cooperations</text>
    </g>
    <g transform="matrix(6.12323e-17,-1,1,6.12323e-17,-709.946,533.015)">
        <g transform="matrix(12.5,0,0,12.5,278.849,827.75)">
        </g>
        <text x="189.213px" y="827.75px" style="font-family:'ArialMT', 'Arial', sans-serif;font-size:12.5px;fill:rgb(166,166,166);">behavior at birth</text>
    </g>
    <g transform="matrix(6.12323e-17,-1,1,6.12323e-17,162.366,1414.69)">
        <g transform="matrix(12.5,0,0,12.5,1155.84,832.432)">
        </g>
        <text x="1075.24px" y="832.432px" style="font-family:'ArialMT', 'Arial', sans-serif;font-size:12.5px;fill:rgb(166,166,166);">behavior in life</text>
    </g>
    <g transform="matrix(12.5,0,0,12.5,153.901,50.5933)">
    </g>
    <g transform="matrix(12.5,0,0,12.5,157.374,50.5933)">
    </g>
    <g transform="matrix(12.5,0,0,12.5,213.661,50.5933)">
    </g>
    <text x="153.901px" y="50.593px" style="font-family:'ArialMT', 'Arial', sans-serif;font-size:12.5px;fill:rgb(166,166,166);">ﬁxed ideas</text>
    <g transform="matrix(12.5,0,0,12.5,290.587,88.1498)">
    </g>
    <text x="189.146px" y="88.15px" style="font-family:'ArialMT', 'Arial', sans-serif;font-size:12.5px;fill:white;">Always Cooperate</text>
    <g transform="matrix(12.5,0,0,12.5,520.963,87.3424)">
    </g>
    <text x="437.144px" y="87.342px" style="font-family:'ArialMT', 'Arial', sans-serif;font-size:12.5px;fill:white;">Nice <tspan x="465.397px 472.569px 475.346px " y="87.342px 87.342px 87.342px ">Tit</tspan> For <tspan x="504.289px 510.539px 517.491px " y="87.342px 87.342px 87.342px ">Tat</tspan></text>
    <g transform="matrix(12.5,0,0,12.5,521.996,519.611)">
    </g>
    <text x="431.231px" y="519.611px" style="font-family:'ArialMT', 'Arial', sans-serif;font-size:12.5px;fill:white;">Nasty <tspan x="466.43px 473.602px 476.379px " y="519.611px 519.611px 519.611px ">Tit</tspan> For <tspan x="505.322px 511.572px 518.524px " y="519.611px 519.611px 519.611px ">Tat</tspan></text>
    <g transform="matrix(12.5,0,0,12.5,266.206,519.611)">
    </g>
    <text x="187.013px" y="519.611px" style="font-family:'ArialMT', 'Arial', sans-serif;font-size:12.5px;fill:white;">Always Defect</text>
    <g transform="matrix(6.12323e-17,-1,1,6.12323e-17,-563.586,440.119)">
        <g transform="matrix(12.5,0,0,12.5,278.709,708.122)">
        </g>
        <text x="173.79px" y="708.122px" style="font-family:'ArialMT', 'Arial', sans-serif;font-size:12.5px;fill:white;">Random 50%-50%</text>
    </g>
    <g transform="matrix(12.5,0,0,12.5,578.516,92.6537)">
    </g>
    <text x="571.564px" y="92.654px" style="font-family:'ArialMT', 'Arial', sans-serif;font-size:12.5px;fill:rgb(166,166,166);">0</text>
    <g transform="matrix(12.5,0,0,12.5,711.476,92.6537)">
    </g>
    <text x="704.524px" y="92.654px" style="font-family:'ArialMT', 'Arial', sans-serif;font-size:12.5px;fill:rgb(166,166,166);">1</text>
    <g transform="matrix(12.5,0,0,12.5,845.148,92.6537)">
    </g>
    <text x="838.196px" y="92.654px" style="font-family:'ArialMT', 'Arial', sans-serif;font-size:12.5px;fill:rgb(166,166,166);">2</text>
    <g transform="matrix(12.5,0,0,12.5,555.122,50.5933)">
    </g>
    <text x="475.911px" y="50.593px" style="font-family:'ArialMT', 'Arial', sans-serif;font-size:12.5px;fill:rgb(166,166,166);">instant learner</text>
    <g transform="matrix(12.5,0,0,12.5,389.549,60.562)">
    </g>
    <text x="320.06px" y="60.562px" style="font-family:'ArialMT', 'Arial', sans-serif;font-size:12.5px;fill:rgb(166,166,166);">learning rate</text>
    <g transform="matrix(12.5,0,0,12.5,978.497,92.6537)">
    </g>
    <text x="971.545px" y="92.654px" style="font-family:'ArialMT', 'Arial', sans-serif;font-size:12.5px;fill:rgb(166,166,166);">3</text>
    <g transform="matrix(12.5,0,0,12.5,833.342,61.9155)">
    </g>
    <text x="716.601px" y="61.915px" style="font-family:'ArialMT', 'Arial', sans-serif;font-size:12.5px;fill:rgb(166,166,166);">average points/game</text>
    <g transform="matrix(6.12323e-17,-1,1,6.12323e-17,-892.681,689.418)">
        <g transform="matrix(12.5,0,0,12.5,265.683,997.319)">
        </g>
        <text x="190.646px" y="997.319px" style="font-family:'ArialMT', 'Arial', sans-serif;font-size:12.5px;fill:rgb(166,166,166);">initially defect</text>
    </g>
    <g transform="matrix(6.12323e-17,-1,1,6.12323e-17,9.72607,1591.82)">
        <g transform="matrix(12.5,0,0,12.5,1185.48,997.319)">
        </g>
        <text x="1093.05px" y="997.319px" style="font-family:'ArialMT', 'Arial', sans-serif;font-size:12.5px;fill:rgb(166,166,166);">100% defections</text>
    </g>
    <circle cx="155" cy="99" r="4.928" style="fill:none;stroke:rgb(166,166,166);stroke-width:1px;"/>
    <circle cx="155" cy="299" r="4.928" style="fill:none;stroke:rgb(166,166,166);stroke-width:1px;"/>
    <circle cx="155" cy="499" r="4.928" style="fill:none;stroke:rgb(166,166,166);stroke-width:1px;"/>
    <circle cx="555" cy="499" r="4.928" style="fill:none;stroke:rgb(166,166,166);stroke-width:1px;"/>
    <circle cx="555" cy="99" r="4.928" style="fill:none;stroke:rgb(166,166,166);stroke-width:1px;"/>
    <path d="M155,94.072L155,87.489L183.682,87.489" style="fill:none;stroke:rgb(166,166,166);stroke-width:1px;"/>
    <path d="M150.072,299L143.489,299L143.489,270.318" style="fill:none;stroke:rgb(166,166,166);stroke-width:1px;"/>
    <path d="M155,503.928L155,510.511L183.682,510.511" style="fill:none;stroke:rgb(166,166,166);stroke-width:1px;"/>
    <path d="M555,503.928L555,510.511L526.318,510.511" style="fill:none;stroke:rgb(166,166,166);stroke-width:1px;"/>
    <path d="M555,94.072L555,87.489L526.318,87.489" style="fill:none;stroke:rgb(166,166,166);stroke-width:1px;"/>
    <path d="M159.8,59.803L155,57.403L159.8,55.003L159.8,59.803Z" style="fill:rgb(77,77,77);"/>
    <path d="M315.347,57.403L158.84,57.403" style="fill:none;stroke:rgb(77,77,77);stroke-width:1px;"/>
    <path d="M111.003,103.8L113.403,99L115.803,103.8L111.003,103.8Z" style="fill:rgb(77,77,77);"/>
    <path d="M113.403,249.347L113.403,102.84" style="fill:none;stroke:rgb(77,77,77);stroke-width:1px;"/>
    <path d="M987.998,103.8L990.398,99L992.798,103.8L987.998,103.8Z" style="fill:rgb(77,77,77);"/>
    <path d="M990.398,252.347L990.398,102.84" style="fill:none;stroke:rgb(77,77,77);stroke-width:1px;"/>
    <path d="M111.003,494.2L113.403,499L115.803,494.2L111.003,494.2Z" style="fill:rgb(77,77,77);"/>
    <path d="M113.403,495.16L113.403,348.653" style="fill:none;stroke:rgb(77,77,77);stroke-width:1px;"/>
    <path d="M987.998,494.2L990.398,499L992.798,494.2L987.998,494.2Z" style="fill:rgb(77,77,77);"/>
    <path d="M990.398,495.16L990.398,345.653" style="fill:none;stroke:rgb(77,77,77);stroke-width:1px;"/>
    <path d="M550.09,59.803L554.89,57.403L550.09,55.003L550.09,59.803Z" style="fill:rgb(77,77,77);"/>
    <path d="M551.05,57.403L394.544,57.403" style="fill:none;stroke:rgb(77,77,77);stroke-width:1px;"/>
</svg>
