<?xml version="1.0" encoding="UTF-8" standalone="no"?>
<!DOCTYPE svg PUBLIC "-//W3C//DTD SVG 1.1//EN" "http://www.w3.org/Graphics/SVG/1.1/DTD/svg11.dtd">
<svg width="100%" height="100%" viewBox="0 0 1146 577" version="1.1" xmlns="http://www.w3.org/2000/svg" xmlns:xlink="http://www.w3.org/1999/xlink" xml:space="preserve" xmlns:serif="http://www.serif.com/" style="fill-rule:evenodd;clip-rule:evenodd;stroke-linejoin:round;stroke-miterlimit:1.5;">
    <g transform="matrix(6.12323e-17,-1,1,6.12323e-17,-567.427,364.164)">
        <g transform="matrix(12.5,0,0,12.5,265.683,672.065)">
        </g>
        <text x="169.101px" y="672.065px" style="font-family:'ArialMT', 'Arial', sans-serif;font-size:12.5px;fill:rgb(166,166,166);">initially cooperate</text>
    </g>
    <g transform="matrix(6.12323e-17,-1,1,6.12323e-17,-711.946,531.015)">
        <g transform="matrix(12.5,0,0,12.5,276.849,827.75)">
        </g>
        <text x="187.213px" y="827.75px" style="font-family:'ArialMT', 'Arial', sans-serif;font-size:12.5px;fill:rgb(166,166,166);">behavior at birth</text>
    </g>
    <g transform="matrix(6.12323e-17,-1,1,6.12323e-17,205.538,1448.5)">
        <g transform="matrix(12.5,0,0,12.5,1201.17,827.75)">
        </g>
        <text x="1097.86px" y="827.75px" style="font-family:'ArialMT', 'Arial', sans-serif;font-size:12.5px;fill:rgb(166,166,166);">payof<tspan x="1128.21px 1131.69px " y="827.75px 827.75px ">f </tspan>per iteration</text>
    </g>
    <g transform="matrix(6.12323e-17,-1,1,6.12323e-17,281.814,1328.02)">
        <g transform="matrix(12.5,0,0,12.5,1149.65,729.373)">
        </g>
        <text x="1105.18px" y="729.373px" style="font-family:'ArialMT', 'Arial', sans-serif;font-size:12.5px;fill:rgb(166,166,166);">player 1</text>
    </g>
    <circle cx="1008.01" cy="173.007" r="3" style="fill:rgb(0,128,0);"/>
    <g>
        <circle cx="1008.01" cy="376.686" r="2" style="fill:none;stroke:rgb(0,128,0);stroke-width:1px;"/>
        <g transform="matrix(6.12323e-17,-1,1,6.12323e-17,77.5206,1532.31)">
            <g transform="matrix(12.5,0,0,12.5,1149.65,933.666)">
            </g>
            <text x="1105.18px" y="933.666px" style="font-family:'ArialMT', 'Arial', sans-serif;font-size:12.5px;fill:rgb(166,166,166);">player 2</text>
        </g>
    </g>
    <g transform="matrix(12.5,0,0,12.5,153.901,50.5933)">
    </g>
    <g transform="matrix(12.5,0,0,12.5,157.374,50.5933)">
    </g>
    <g transform="matrix(12.5,0,0,12.5,213.661,50.5933)">
    </g>
    <text x="153.901px" y="50.593px" style="font-family:'ArialMT', 'Arial', sans-serif;font-size:12.5px;fill:rgb(166,166,166);">ﬁxed ideas</text>
    <g transform="matrix(12.5,0,0,12.5,290.587,88.1498)">
    </g>
    <text x="189.146px" y="88.15px" style="font-family:'ArialMT', 'Arial', sans-serif;font-size:12.5px;fill:white;">Always Cooperate</text>
    <g transform="matrix(12.5,0,0,12.5,520.963,87.3424)">
    </g>
    <text x="437.144px" y="87.342px" style="font-family:'ArialMT', 'Arial', sans-serif;font-size:12.5px;fill:white;">Nice <tspan x="465.397px 472.569px 475.346px " y="87.342px 87.342px 87.342px ">Tit</tspan> For <tspan x="504.289px 510.539px 517.491px " y="87.342px 87.342px 87.342px ">Tat</tspan></text>
    <g transform="matrix(12.5,0,0,12.5,521.996,519.611)">
    </g>
    <text x="431.231px" y="519.611px" style="font-family:'ArialMT', 'Arial', sans-serif;font-size:12.5px;fill:white;">Nasty <tspan x="466.43px 473.602px 476.379px " y="519.611px 519.611px 519.611px ">Tit</tspan> For <tspan x="505.322px 511.572px 518.524px " y="519.611px 519.611px 519.611px ">Tat</tspan></text>
    <g transform="matrix(12.5,0,0,12.5,266.206,519.611)">
    </g>
    <text x="187.013px" y="519.611px" style="font-family:'ArialMT', 'Arial', sans-serif;font-size:12.5px;fill:white;">Always Defect</text>
    <g transform="matrix(6.12323e-17,-1,1,6.12323e-17,-563.586,440.119)">
        <g transform="matrix(12.5,0,0,12.5,278.709,708.122)">
        </g>
        <text x="173.79px" y="708.122px" style="font-family:'ArialMT', 'Arial', sans-serif;font-size:12.5px;fill:white;">Random 50%-50%</text>
    </g>
    <g transform="matrix(12.5,0,0,12.5,555.122,50.5933)">
    </g>
    <text x="475.911px" y="50.593px" style="font-family:'ArialMT', 'Arial', sans-serif;font-size:12.5px;fill:rgb(166,166,166);">instant learner</text>
    <g transform="matrix(12.5,0,0,12.5,389.549,59.562)">
    </g>
    <text x="320.06px" y="59.562px" style="font-family:'ArialMT', 'Arial', sans-serif;font-size:12.5px;fill:rgb(166,166,166);">learning rate</text>
    <g>
        <g transform="matrix(12.5,0,0,12.5,992.284,107.984)">
        </g>
        <text x="985.332px" y="107.984px" style="font-family:'ArialMT', 'Arial', sans-serif;font-size:12.5px;fill:rgb(166,166,166);">3</text>
        <g transform="matrix(12.5,0,0,12.5,992.284,169.603)">
        </g>
        <text x="985.332px" y="169.603px" style="font-family:'ArialMT', 'Arial', sans-serif;font-size:12.5px;fill:rgb(166,166,166);">2</text>
        <g transform="matrix(12.5,0,0,12.5,992.284,231.064)">
        </g>
        <text x="985.332px" y="231.064px" style="font-family:'ArialMT', 'Arial', sans-serif;font-size:12.5px;fill:rgb(166,166,166);">1</text>
        <g transform="matrix(12.5,0,0,12.5,992.284,292.524)">
        </g>
        <text x="985.332px" y="292.524px" style="font-family:'ArialMT', 'Arial', sans-serif;font-size:12.5px;fill:rgb(166,166,166);">0</text>
    </g>
    <g>
        <g transform="matrix(12.5,0,0,12.5,992.284,312.984)">
        </g>
        <text x="985.332px" y="312.984px" style="font-family:'ArialMT', 'Arial', sans-serif;font-size:12.5px;fill:rgb(166,166,166);">3</text>
        <g transform="matrix(12.5,0,0,12.5,992.284,374.603)">
        </g>
        <text x="985.332px" y="374.603px" style="font-family:'ArialMT', 'Arial', sans-serif;font-size:12.5px;fill:rgb(166,166,166);">2</text>
        <g transform="matrix(12.5,0,0,12.5,992.284,436.064)">
        </g>
        <text x="985.332px" y="436.064px" style="font-family:'ArialMT', 'Arial', sans-serif;font-size:12.5px;fill:rgb(166,166,166);">1</text>
        <g transform="matrix(12.5,0,0,12.5,992.284,497.524)">
        </g>
        <text x="985.332px" y="497.524px" style="font-family:'ArialMT', 'Arial', sans-serif;font-size:12.5px;fill:rgb(166,166,166);">0</text>
    </g>
    <g transform="matrix(12.5,0,0,12.5,800.332,83.5229)">
    </g>
    <text x="749.611px" y="83.523px" style="font-family:'ArialMT', 'Arial', sans-serif;font-size:12.5px;fill:rgb(166,166,166);">iterations</text>
    <g transform="matrix(6.12323e-17,-1,1,6.12323e-17,-892.681,689.418)">
        <g transform="matrix(12.5,0,0,12.5,265.683,997.319)">
        </g>
        <text x="190.646px" y="997.319px" style="font-family:'ArialMT', 'Arial', sans-serif;font-size:12.5px;fill:rgb(166,166,166);">initially defect</text>
    </g>
    <circle cx="155" cy="99" r="4.928" style="fill:none;stroke:rgb(166,166,166);stroke-width:1px;"/>
    <circle cx="155" cy="299" r="4.928" style="fill:none;stroke:rgb(166,166,166);stroke-width:1px;"/>
    <circle cx="155" cy="499" r="4.928" style="fill:none;stroke:rgb(166,166,166);stroke-width:1px;"/>
    <circle cx="555" cy="499" r="4.928" style="fill:none;stroke:rgb(166,166,166);stroke-width:1px;"/>
    <circle cx="555" cy="99" r="4.928" style="fill:none;stroke:rgb(166,166,166);stroke-width:1px;"/>
    <path d="M155,94.072L155,87.489L183.682,87.489" style="fill:none;stroke:rgb(166,166,166);stroke-width:1px;"/>
    <path d="M150.072,299L143.489,299L143.489,270.318" style="fill:none;stroke:rgb(166,166,166);stroke-width:1px;"/>
    <path d="M155,503.928L155,510.511L183.682,510.511" style="fill:none;stroke:rgb(166,166,166);stroke-width:1px;"/>
    <path d="M555,503.928L555,510.511L526.318,510.511" style="fill:none;stroke:rgb(166,166,166);stroke-width:1px;"/>
    <path d="M555,94.072L555,87.489L526.318,87.489" style="fill:none;stroke:rgb(166,166,166);stroke-width:1px;"/>
    <path d="M161,60.403L155,57.403L161,54.403L161,60.403Z" style="fill:rgb(77,77,77);"/>
    <path d="M315.347,57.403L159.8,57.403" style="fill:none;stroke:rgb(77,77,77);stroke-width:1px;"/>
    <path d="M110.403,105L113.403,99L116.403,105L110.403,105Z" style="fill:rgb(77,77,77);"/>
    <path d="M113.403,249.347L113.403,103.8" style="fill:none;stroke:rgb(77,77,77);stroke-width:1px;"/>
    <path d="M110.403,493L113.403,499L116.403,493L110.403,493Z" style="fill:rgb(77,77,77);"/>
    <path d="M113.403,494.2L113.403,348.653" style="fill:none;stroke:rgb(77,77,77);stroke-width:1px;"/>
    <path d="M548.89,60.403L554.89,57.403L548.89,54.403L548.89,60.403Z" style="fill:rgb(77,77,77);"/>
    <path d="M550.09,57.403L394.544,57.403" style="fill:none;stroke:rgb(77,77,77);stroke-width:1px;"/>
</svg>
